<?xml version="1.0" encoding="UTF-8" standalone="no"?>
<svg
   enable-background="new 0 0 648 432"
   version="1.1"
   viewBox="0 0 340.15734 340.15745"
   xml:space="preserve"
   id="svg19"
   sodipodi:docname="icon.svg"
   inkscape:version="1.1.2 (b8e25be833, 2022-02-05)"
   width="90mm"
   height="90mm"
   xmlns:inkscape="http://www.inkscape.org/namespaces/inkscape"
   xmlns:sodipodi="http://sodipodi.sourceforge.net/DTD/sodipodi-0.dtd"
   xmlns="http://www.w3.org/2000/svg"
   xmlns:svg="http://www.w3.org/2000/svg"><defs
   id="defs23"><filter
     inkscape:collect="always"
     style="color-interpolation-filters:sRGB"
     id="filter9656"
     x="-0.012596747"
     y="-0.011457235"
     width="1.0251935"
     height="1.0229145"><feGaussianBlur
       inkscape:collect="always"
       stdDeviation="1.5738292"
       id="feGaussianBlur9658" /></filter></defs><sodipodi:namedview
   id="namedview21"
   pagecolor="#505050"
   bordercolor="#eeeeee"
   borderopacity="1"
   inkscape:pageshadow="0"
   inkscape:pageopacity="0"
   inkscape:pagecheckerboard="0"
   showgrid="false"
   inkscape:zoom="1.7800926"
   inkscape:cx="268.80624"
   inkscape:cy="143.53186"
   inkscape:window-width="1920"
   inkscape:window-height="991"
   inkscape:window-x="-9"
   inkscape:window-y="-9"
   inkscape:window-maximized="1"
   inkscape:current-layer="svg19"
   units="mm"
   width="147mm"
   inkscape:document-units="mm" />
<path
   d="m 282.62993,12.742343 c -45.1,9.9 -151.6,33.6 -155.9,34.6 -5.5,1.3 -17.3,2.4 -17.3,17.4 V 264.14234 c -12.4,-7 -31.3,-7.9 -50.2,-1.1 -28,10.1 -45.3,33.2 -38.6,51.7 6.7,18.5 34.8,25.3 62.7,15.2 26,-9.4 42.8,-30 39.7,-47.7 v -150.8 c 0,-8.3 -0.2,-19 21.4,-23.6 9.9,-2.1 144.6,-32.099997 144.6,-32.099997 V 215.14234 c -12.4,-7.2 -31.5,-8.2 -50.6,-1.3 -28,10.1 -45.3,33.2 -38.6,51.7 6.7,18.5 34.8,25.3 62.7,15.2 25.8,-9.3 42.4,-29.6 39.8,-47.2 h 0.3 V 41.642343 c 0,-23.8 16.8,-24.4 16.8,-24.4 v -13.1 z"
   id="path17"
   style="opacity:1" />
<path
   style="opacity:1;mix-blend-mode:normal;fill:#85cce6;fill-opacity:1;stroke-width:0.561769;filter:url(#filter9656)"
   d="m 47.942213,333.70205 c -30.702841,-5.57134 -37.618731,-32.23292 -14.14501,-54.53066 13.18935,-12.52859 32.30222,-20.04267 51.02985,-20.06198 8.57612,-0.009 13.94755,0.92438 20.359317,3.5372 2.24269,0.9139 4.26454,1.66251 4.493,1.66356 0.22846,10e-4 0.48126,-46.19651 0.56176,-102.66127 l 0.14638,-102.663207 1.23935,-2.31685 c 1.48084,-2.76831 4.0607,-5.05395 7.35858,-6.51939 1.33016,-0.59107 40.38712,-9.504717 86.79324,-19.808108 46.40612,-10.303389 90.92405,-20.270834 98.92874,-22.1498737 8.00468,-1.879041 14.64057,-3.4164384 14.74642,-3.4164384 0.10585,0 0.19245,2.7606684 0.19245,6.1348181 v 6.134818 l -1.82575,0.394736 c -4.88219,1.055556 -9.73672,4.941754 -12.19681,9.763921 -2.93122,5.745673 -2.8053,0.95639 -2.87225,109.244754 -0.0342,55.34004 -0.28194,102.32554 -0.55049,104.41224 -0.98211,7.631 -4.68126,14.46561 -11.99625,22.16445 -14.27883,15.02812 -36.92638,23.57104 -58.32313,22.00015 -22.58325,-1.658 -36.60809,-16.45564 -32.16446,-33.9368 4.85107,-19.08397 27.48772,-36.17728 53.58155,-40.46032 11.09877,-1.82176 24.00791,-0.49023 32.37218,3.33906 1.78707,0.81815 3.33812,1.39865 3.44678,1.29001 0.10864,-0.10866 0.13335,-31.54387 0.0549,-69.85603 l -0.14263,-69.658497 -75.15158,16.70558 c -64.69315,14.380767 -75.72033,16.975687 -79.23853,18.646477 -5.27236,2.50384 -7.82221,4.78653 -9.76422,8.74117 l -1.56739,3.19174 -0.13194,84.3982 c -0.13116,83.90212 -0.13883,84.41889 -1.3046,87.91678 -6.04286,18.13157 -27.621537,33.90302 -52.127737,38.09917 -7.27897,1.24637 -15.80745,1.34831 -21.8017,0.26059 z"
   id="path9509" /></svg>
